<svg width="45" height="16" viewBox="0 0 45 16" fill="none" xmlns="http://www.w3.org/2000/svg">
<g clip-path="url(#clip0_21_64)">
<path d="M0 14.2969V5.01855C0 4.25098 0.46582 3.5625 1.17773 3.27832L9.02637 0.140625C9.24902 0.0498047 9.49805 0.0498047 9.72363 0.140625L17.5723 3.27832C18.2842 3.5625 18.75 4.25391 18.75 5.01855V14.2969C18.75 14.6865 18.4365 15 18.0469 15H16.6406C16.251 15 15.9375 14.6865 15.9375 14.2969V6.5625C15.9375 6.04395 15.5186 5.625 15 5.625H3.75C3.23145 5.625 2.8125 6.04395 2.8125 6.5625V14.2969C2.8125 14.6865 2.49902 15 2.10938 15H0.703125C0.313477 15 0 14.6865 0 14.2969ZM14.2969 15H4.45312C4.06348 15 3.75 14.6865 3.75 14.2969V12.6562H15V14.2969C15 14.6865 14.6865 15 14.2969 15ZM3.75 11.7188V9.84375H15V11.7188H3.75ZM3.75 8.90625V6.5625H15V8.90625H3.75Z" fill="#5F5F5F"/>
</g>
<g clip-path="url(#clip1_21_64)">
<path d="M26 2.40625C26 1.62988 26.6299 1 27.4062 1H36.7812C37.5576 1 38.1875 1.62988 38.1875 2.40625V3.8125H39.6729C40.1709 3.8125 40.6484 4.00879 41 4.36035L43.2646 6.625C43.6162 6.97656 43.8125 7.4541 43.8125 7.95215V8.5V9.4375V11.3125C44.3311 11.3125 44.75 11.7314 44.75 12.25C44.75 12.7686 44.3311 13.1875 43.8125 13.1875H42.875C42.875 14.7402 41.6152 16 40.0625 16C38.5098 16 37.25 14.7402 37.25 13.1875H33.5C33.5 14.7402 32.2402 16 30.6875 16C29.1348 16 27.875 14.7402 27.875 13.1875H27.4062C26.6299 13.1875 26 12.5576 26 11.7812V2.40625ZM38.1875 8.5H41.9375V7.95215L39.6729 5.6875H38.1875V8.5ZM30.6875 14.5938C31.4639 14.5938 32.0938 13.9639 32.0938 13.1875C32.0938 12.4111 31.4639 11.7812 30.6875 11.7812C29.9111 11.7812 29.2812 12.4111 29.2812 13.1875C29.2812 13.9639 29.9111 14.5938 30.6875 14.5938ZM41.4688 13.1875C41.4688 12.4111 40.8389 11.7812 40.0625 11.7812C39.2861 11.7812 38.6562 12.4111 38.6562 13.1875C38.6562 13.9639 39.2861 14.5938 40.0625 14.5938C40.8389 14.5938 41.4688 13.9639 41.4688 13.1875ZM33.5293 3.7832C33.2539 3.50781 32.8086 3.50781 32.5361 3.7832C32.2637 4.05859 32.2607 4.50391 32.5361 4.77637L33.6787 5.91895H28.8125C28.4229 5.91895 28.1094 6.23242 28.1094 6.62207C28.1094 7.01172 28.4229 7.3252 28.8125 7.3252H33.6787L32.5361 8.46777C32.2607 8.74316 32.2607 9.18848 32.5361 9.46094C32.8115 9.7334 33.2568 9.73633 33.5293 9.46094L35.873 7.11719C36.1484 6.8418 36.1484 6.39648 35.873 6.12402L33.5293 3.7832Z" fill="#55BBE2"/>
</g>
<defs>
<clipPath id="clip0_21_64">
<rect width="18.75" height="15" fill="white"/>
</clipPath>
<clipPath id="clip1_21_64">
<rect width="18.75" height="15" fill="white" transform="translate(26 1)"/>
</clipPath>
</defs>
</svg>
