<svg width="14" height="15" viewBox="0 0 14 15" fill="none" xmlns="http://www.w3.org/2000/svg">
<g clip-path="url(#clip0_21_69)">
<path d="M0.9375 0C1.45605 0 1.875 0.418945 1.875 0.9375V1.40625L3.89648 0.902344C5.0127 0.624023 6.19043 0.75293 7.22168 1.26855C8.57812 1.94824 10.1748 1.94824 11.5312 1.26855L11.8125 1.12793C12.416 0.823242 13.125 1.2627 13.125 1.93652V10.1309C13.125 10.5205 12.8818 10.8721 12.5156 11.0098L11.499 11.3906C10.1455 11.8975 8.63965 11.8184 7.34766 11.1738C6.2373 10.6172 4.96289 10.4795 3.75879 10.7812L1.875 11.25V14.0625C1.875 14.5811 1.45605 15 0.9375 15C0.418945 15 0 14.5811 0 14.0625V11.7188V9.78516V1.875V0.9375C0 0.418945 0.418945 0 0.9375 0ZM1.875 5.48145L3.75 5.07422V6.99316L1.875 7.40039V9.31641L3.30469 8.95898C3.4541 8.9209 3.60059 8.88867 3.75 8.8623V6.99316L4.88965 6.74707C5.13281 6.69434 5.37891 6.67383 5.625 6.68555V4.81055C6.02344 4.82227 6.42188 4.88672 6.80859 4.99805L7.5 5.2002V7.1543L6.27832 6.79395C6.06445 6.73242 5.84473 6.69434 5.625 6.68262V8.77441C6.26367 8.83008 6.89355 8.9707 7.5 9.19629V7.1543L8.16504 7.35059C8.56055 7.46777 8.96484 7.53809 9.375 7.56738V5.68359C9.14648 5.66016 8.91797 5.61621 8.69531 5.55176L7.5 5.2002V3.38379C7.11914 3.27246 6.74414 3.12598 6.38086 2.94434C6.14062 2.82422 5.88574 2.73926 5.625 2.68652V4.80762C5.24414 4.7959 4.86328 4.83105 4.49121 4.91309L3.75 5.07422V2.87109L1.875 3.33984V5.48145ZM9.375 9.83496C9.86719 9.87891 10.3682 9.81445 10.8398 9.63574L11.25 9.4834V7.37988L11.0186 7.43262C10.4795 7.55859 9.92578 7.59961 9.375 7.56445V9.83203V9.83496ZM11.25 5.45801V3.38086C10.6377 3.55957 10.0078 3.64746 9.375 3.64746V5.68359C9.78223 5.72461 10.1953 5.69824 10.5967 5.60742L11.25 5.45508V5.45801Z" fill="#55BBE2"/>
</g>
<defs>
<clipPath id="clip0_21_69">
<rect width="13.125" height="15" fill="white"/>
</clipPath>
</defs>
</svg>
